<svg width="14" height="14" viewBox="0 0 14 14" fill="none" xmlns="http://www.w3.org/2000/svg">
<path fill-rule="evenodd" clip-rule="evenodd" d="M7.6 1H6.4C5.26339 1 4.47108 1.00078 3.85424 1.05118C3.24907 1.10062 2.90138 1.19279 2.63803 1.32698C2.07354 1.6146 1.6146 2.07354 1.32698 2.63803C1.19279 2.90138 1.10062 3.24907 1.05118 3.85424C1.00078 4.47108 1 5.26339 1 6.4V7.6C1 8.73661 1.00078 9.52892 1.05118 10.1458C1.10062 10.7509 1.19279 11.0986 1.32698 11.362C1.6146 11.9265 2.07354 12.3854 2.63803 12.673C2.90138 12.8072 3.24907 12.8994 3.85424 12.9488C4.47108 12.9992 5.26339 13 6.4 13H7.6C8.73661 13 9.52892 12.9992 10.1458 12.9488C10.7509 12.8994 11.0986 12.8072 11.362 12.673C11.9265 12.3854 12.3854 11.9265 12.673 11.362C12.8072 11.0986 12.8994 10.7509 12.9488 10.1458C12.9992 9.52892 13 8.73661 13 7.6V6.4C13 5.26339 12.9992 4.47108 12.9488 3.85424C12.8994 3.24907 12.8072 2.90138 12.673 2.63803C12.3854 2.07354 11.9265 1.6146 11.362 1.32698C11.0986 1.19279 10.7509 1.10062 10.1458 1.05118C9.52892 1.00078 8.73661 1 7.6 1ZM0.435974 2.18404C0 3.03969 0 4.15979 0 6.4V7.6C0 9.84021 0 10.9603 0.435974 11.816C0.819467 12.5686 1.43139 13.1805 2.18404 13.564C3.03969 14 4.15979 14 6.4 14H7.6C9.84021 14 10.9603 14 11.816 13.564C12.5686 13.1805 13.1805 12.5686 13.564 11.816C14 10.9603 14 9.84021 14 7.6V6.4C14 4.15979 14 3.03969 13.564 2.18404C13.1805 1.43139 12.5686 0.819467 11.816 0.435974C10.9603 0 9.84021 0 7.6 0H6.4C4.15979 0 3.03969 0 2.18404 0.435974C1.43139 0.819467 0.819467 1.43139 0.435974 2.18404Z" fill="#1C1C1C" fill-opacity="0.2"/>
</svg>
