<svg width="16" height="16" viewBox="0 0 16 16" fill="none" xmlns="http://www.w3.org/2000/svg">
<path fill-rule="evenodd" clip-rule="evenodd" d="M1.43597 3.18404C1 4.03969 1 5.15979 1 7.4V8.6C1 10.8402 1 11.9603 1.43597 12.816C1.81947 13.5686 2.43139 14.1805 3.18404 14.564C4.03969 15 5.15979 15 7.4 15H8.6C10.8402 15 11.9603 15 12.816 14.564C13.5686 14.1805 14.1805 13.5686 14.564 12.816C15 11.9603 15 10.8402 15 8.6V7.4C15 5.15979 15 4.03969 14.564 3.18404C14.1805 2.43139 13.5686 1.81947 12.816 1.43597C11.9603 1 10.8402 1 8.6 1H7.4C5.15979 1 4.03969 1 3.18404 1.43597C2.43139 1.81947 1.81947 2.43139 1.43597 3.18404ZM11.0511 7.25871C11.3321 6.95435 11.3131 6.47985 11.0087 6.1989C10.7044 5.91795 10.2299 5.93693 9.94891 6.24129L7.51493 8.87811L6.31444 7.50613C6.04168 7.1944 5.56786 7.16281 5.25613 7.43557C4.9444 7.70833 4.91282 8.18215 5.18558 8.49388L6.75241 10.2845C7.1438 10.7319 7.83664 10.7411 8.23979 10.3043L11.0511 7.25871Z" fill="#1C1C1C"/>
</svg>
